<svg width="144" height="37" viewBox="0 0 144 37" fill="none" xmlns="http://www.w3.org/2000/svg">
<path d="M12.958 30.248C10.788 30.248 8.82467 29.7727 7.068 28.822C5.332 27.8507 3.968 26.528 2.976 24.854C1.984 23.1593 1.488 21.258 1.488 19.15C1.488 17.042 1.984 15.151 2.976 13.477C3.968 11.7823 5.34233 10.4597 7.099 9.509C8.85567 8.53767 10.819 8.052 12.989 8.052C14.6837 8.052 16.2337 8.34133 17.639 8.92C19.0443 9.478 20.243 10.315 21.235 11.431L19.22 13.384C17.5873 11.6687 15.5517 10.811 13.113 10.811C11.501 10.811 10.044 11.1727 8.742 11.896C7.44 12.6193 6.417 13.6217 5.673 14.903C4.94967 16.1637 4.588 17.5793 4.588 19.15C4.588 20.7207 4.94967 22.1467 5.673 23.428C6.417 24.6887 7.44 25.6807 8.742 26.404C10.044 27.1273 11.501 27.489 13.113 27.489C15.531 27.489 17.5667 26.621 19.22 24.885L21.235 26.838C20.243 27.954 19.034 28.8013 17.608 29.38C16.2027 29.9587 14.6527 30.248 12.958 30.248ZM40.0271 13.57V30H37.1751V27.396C36.5137 28.3053 35.6767 28.9977 34.6641 29.473C33.6514 29.9483 32.5354 30.186 31.3161 30.186C29.7247 30.186 28.2987 29.8347 27.0381 29.132C25.7774 28.4293 24.7854 27.4477 24.0621 26.187C23.3594 24.9057 23.0081 23.4383 23.0081 21.785C23.0081 20.1317 23.3594 18.6747 24.0621 17.414C24.7854 16.1533 25.7774 15.1717 27.0381 14.469C28.2987 13.7663 29.7247 13.415 31.3161 13.415C32.4941 13.415 33.5791 13.6423 34.5711 14.097C35.5631 14.531 36.3897 15.182 37.0511 16.05V13.57H40.0271ZM31.5641 27.582C32.5974 27.582 33.5377 27.3443 34.3851 26.869C35.2324 26.373 35.8937 25.691 36.3691 24.823C36.8444 23.9343 37.0821 22.9217 37.0821 21.785C37.0821 20.6483 36.8444 19.646 36.3691 18.778C35.8937 17.8893 35.2324 17.2073 34.3851 16.732C33.5377 16.2567 32.5974 16.019 31.5641 16.019C30.5101 16.019 29.5594 16.2567 28.7121 16.732C27.8854 17.2073 27.2241 17.8893 26.7281 18.778C26.2527 19.646 26.0151 20.6483 26.0151 21.785C26.0151 22.9217 26.2527 23.9343 26.7281 24.823C27.2241 25.691 27.8854 26.373 28.7121 26.869C29.5594 27.3443 30.5101 27.582 31.5641 27.582ZM54.3689 13.415C55.9602 13.415 57.3862 13.7663 58.6469 14.469C59.9076 15.1717 60.8892 16.1533 61.5919 17.414C62.3152 18.6747 62.6769 20.1317 62.6769 21.785C62.6769 23.4383 62.3152 24.9057 61.5919 26.187C60.8892 27.4477 59.9076 28.4293 58.6469 29.132C57.3862 29.8347 55.9602 30.186 54.3689 30.186C53.1909 30.186 52.1059 29.9587 51.1139 29.504C50.1426 29.0493 49.3159 28.388 48.6339 27.52V36.014H45.6579V13.57H48.5099V16.174C49.1712 15.2647 50.0082 14.5827 51.0209 14.128C52.0336 13.6527 53.1496 13.415 54.3689 13.415ZM54.1209 27.582C55.1749 27.582 56.1152 27.3443 56.9419 26.869C57.7892 26.373 58.4506 25.691 58.9259 24.823C59.4219 23.9343 59.6699 22.9217 59.6699 21.785C59.6699 20.6483 59.4219 19.646 58.9259 18.778C58.4506 17.8893 57.7892 17.2073 56.9419 16.732C56.1152 16.2567 55.1749 16.019 54.1209 16.019C53.0876 16.019 52.1472 16.267 51.2999 16.763C50.4732 17.2383 49.8119 17.91 49.3159 18.778C48.8406 19.646 48.6029 20.6483 48.6029 21.785C48.6029 22.9217 48.8406 23.9343 49.3159 24.823C49.7912 25.691 50.4526 26.373 51.2999 26.869C52.1472 27.3443 53.0876 27.582 54.1209 27.582ZM75.4378 29.039C75.0038 29.411 74.4664 29.7003 73.8258 29.907C73.1851 30.093 72.5238 30.186 71.8418 30.186C70.1884 30.186 68.9071 29.7417 67.9978 28.853C67.0884 27.9643 66.6338 26.6933 66.6338 25.04V9.974H69.6098V13.57H74.3218V16.019H69.6098V24.916C69.6098 25.8047 69.8268 26.4867 70.2608 26.962C70.7154 27.4373 71.3561 27.675 72.1828 27.675C73.0921 27.675 73.8671 27.4167 74.5078 26.9L75.4378 29.039ZM79.0192 13.57H81.9952V30H79.0192V13.57ZM80.5072 10.408C79.9286 10.408 79.4429 10.222 79.0502 9.85C78.6782 9.478 78.4922 9.02333 78.4922 8.486C78.4922 7.94867 78.6782 7.494 79.0502 7.122C79.4429 6.72933 79.9286 6.533 80.5072 6.533C81.0859 6.533 81.5612 6.719 81.9332 7.091C82.3259 7.44233 82.5222 7.88666 82.5222 8.424C82.5222 8.982 82.3259 9.45733 81.9332 9.85C81.5612 10.222 81.0859 10.408 80.5072 10.408ZM102.216 13.57L95.0244 30H91.9864L84.7944 13.57H87.8944L93.5364 26.745L99.3024 13.57H102.216ZM120.04 13.57V30H117.188V27.396C116.526 28.3053 115.689 28.9977 114.677 29.473C113.664 29.9483 112.548 30.186 111.329 30.186C109.737 30.186 108.311 29.8347 107.051 29.132C105.79 28.4293 104.798 27.4477 104.075 26.187C103.372 24.9057 103.021 23.4383 103.021 21.785C103.021 20.1317 103.372 18.6747 104.075 17.414C104.798 16.1533 105.79 15.1717 107.051 14.469C108.311 13.7663 109.737 13.415 111.329 13.415C112.507 13.415 113.592 13.6423 114.584 14.097C115.576 14.531 116.402 15.182 117.064 16.05V13.57H120.04ZM111.577 27.582C112.61 27.582 113.55 27.3443 114.398 26.869C115.245 26.373 115.906 25.691 116.382 24.823C116.857 23.9343 117.095 22.9217 117.095 21.785C117.095 20.6483 116.857 19.646 116.382 18.778C115.906 17.8893 115.245 17.2073 114.398 16.732C113.55 16.2567 112.61 16.019 111.577 16.019C110.523 16.019 109.572 16.2567 108.725 16.732C107.898 17.2073 107.237 17.8893 106.741 18.778C106.265 19.646 106.028 20.6483 106.028 21.785C106.028 22.9217 106.265 23.9343 106.741 24.823C107.237 25.691 107.898 26.373 108.725 26.869C109.572 27.3443 110.523 27.582 111.577 27.582Z" fill="white"/>
<path d="M132.472 30C131.713 30 131.002 29.8543 130.338 29.5622C129.674 29.2705 129.094 28.8766 128.598 28.3802C128.102 27.8844 127.712 27.3044 127.427 26.6402C127.142 25.9763 127 25.272 127 24.528C127 23.7839 127.142 23.0579 127.427 22.394C127.711 21.7303 128.102 21.15 128.598 20.654C129.094 20.1582 129.674 19.7675 130.338 19.4829C131.002 19.1983 131.713 19.0562 132.472 19.0562C133.231 19.0562 133.942 19.1983 134.606 19.4829C135.269 19.7675 135.85 20.1579 136.346 20.654C136.842 21.1503 137.232 21.7303 137.517 22.394C137.801 23.0582 137.944 23.7695 137.944 24.528V29.9998H135.667V24.528C135.667 24.0758 135.583 23.6525 135.415 23.2583C135.248 22.8643 135.018 22.5218 134.726 22.2296C134.434 21.9377 134.095 21.7081 133.708 21.5402C133.322 21.3726 132.909 21.2884 132.472 21.2884C132.034 21.2884 131.621 21.3726 131.235 21.5402C130.848 21.7081 130.509 21.938 130.217 22.2296C129.925 22.5218 129.695 22.8643 129.528 23.2583C129.36 23.6523 129.276 24.0758 129.276 24.528C129.276 24.9802 129.36 25.3782 129.528 25.7646C129.695 26.1515 129.925 26.4905 130.217 26.7824C130.509 27.0746 130.848 27.3044 131.235 27.4718C131.621 27.6397 132.034 27.7236 132.472 27.7236C132.617 27.7236 132.752 27.7163 132.876 27.7017C133 27.6873 133.128 27.6654 133.26 27.6362L133.785 29.8467C133.128 29.9491 132.69 30 132.472 30H132.472Z" fill="#EFFB53"/>
<path d="M141.336 30H139.082V19.0562H141.336V30Z" fill="#EFFB53"/>
<path d="M137.241 14.9964C139.371 14.5816 139.782 14.1707 140.196 12.0412C140.207 11.9863 140.286 11.9863 140.296 12.0412C140.711 14.1707 141.122 14.5816 143.252 14.9964C143.307 15.0072 143.307 15.0861 143.252 15.0964C141.122 15.5112 140.711 15.9221 140.296 18.0516C140.286 18.1065 140.207 18.1065 140.196 18.0516C139.782 15.9221 139.371 15.5112 137.241 15.0964C137.186 15.0856 137.186 15.0067 137.241 14.9964Z" fill="#EFFB53"/>
</svg>
